<?xml version="1.0" encoding="UTF-8" standalone="no"?>
<!DOCTYPE svg PUBLIC "-//W3C//DTD SVG 1.1//EN"
 "http://www.w3.org/Graphics/SVG/1.1/DTD/svg11.dtd">
<!-- Generated by graphviz version 8.0.5 (20230430.1635)
 -->
<!-- Title: G Pages: 1 -->
<svg width="399pt" height="502pt"
 viewBox="0.00 0.00 399.27 501.65" xmlns="http://www.w3.org/2000/svg" xmlns:xlink="http://www.w3.org/1999/xlink">
<g id="graph0" class="graph" transform="scale(1 1) rotate(0) translate(4 497.65)">
<title>G</title><style>.edge>path:hover{stroke-width:8}</style>
<polygon fill="white" stroke="none" points="-4,4 -4,-497.65 395.27,-497.65 395.27,4 -4,4"/>
<!-- main_py -->
<g id="node1" class="node">
<title>main_py</title><style>.edge>path:hover{stroke-width:8}</style>
<ellipse fill="#8b4b4b" stroke="black" cx="209.33" cy="-18" rx="30.37" ry="18"/>
<text text-anchor="middle" x="209.33" y="-14.5" font-family="Helvetica,sans-Serif" font-size="10.00" fill="#ffffff">main.py</text>
</g>
<!-- src -->
<g id="node2" class="node">
<title>src</title><style>.edge>path:hover{stroke-width:8}</style>
<ellipse fill="#47c2c2" stroke="black" cx="50.33" cy="-127" rx="27" ry="18"/>
<text text-anchor="middle" x="50.33" y="-123.5" font-family="Helvetica,sans-Serif" font-size="10.00" fill="#000000">src</text>
</g>
<!-- src&#45;&gt;main_py -->
<g id="edge1" class="edge">
<title>src&#45;&gt;main_py</title><style>.edge>path:hover{stroke-width:8}</style>
<path fill="none" stroke="black" d="M209.33,-72C210.15,-63.91 210.41,-55.09 210.39,-47.01"/>
<polygon fill="#47c2c2" stroke="black" points="213.87,-47.17 210.21,-37.23 206.87,-47.29 213.87,-47.17"/>
<path fill="none" stroke="black" d="M71.41,-115.37C76.25,-113.12 81.42,-110.87 86.33,-109 139.58,-88.78 203.57,-129.67 209.33,-73"/>
</g>
<!-- src_controller -->
<g id="node3" class="node">
<title>src_controller</title><style>.edge>path:hover{stroke-width:8}</style>
<ellipse fill="#53b6b6" stroke="black" cx="138.33" cy="-127" rx="43.45" ry="18"/>
<text text-anchor="middle" x="138.33" y="-123.5" font-family="Helvetica,sans-Serif" font-size="10.00" fill="#000000">src.controller</text>
</g>
<!-- src_controller&#45;&gt;main_py -->
<g id="edge2" class="edge">
<title>src_controller&#45;&gt;main_py</title><style>.edge>path:hover{stroke-width:8}</style>
<path fill="none" stroke="black" d="M171.12,-114.77C188.75,-106.46 207.29,-93.05 209.33,-73"/>
</g>
<!-- src_controller_smart_home_controller -->
<g id="node4" class="node">
<title>src_controller_smart_home_controller</title><style>.edge>path:hover{stroke-width:8}</style>
<ellipse fill="#409696" stroke="black" cx="160.33" cy="-212.11" rx="81.32" ry="31.11"/>
<text text-anchor="middle" x="160.33" y="-220.61" font-family="Helvetica,sans-Serif" font-size="10.00" fill="#ffffff">src.</text>
<text text-anchor="middle" x="160.33" y="-208.61" font-family="Helvetica,sans-Serif" font-size="10.00" fill="#ffffff">controller.</text>
<text text-anchor="middle" x="160.33" y="-196.61" font-family="Helvetica,sans-Serif" font-size="10.00" fill="#ffffff">smart_home_controller</text>
</g>
<!-- src_controller_smart_home_controller&#45;&gt;main_py -->
<g id="edge3" class="edge">
<title>src_controller_smart_home_controller&#45;&gt;main_py</title><style>.edge>path:hover{stroke-width:8}</style>
<path fill="none" stroke="black" d="M175.7,-181.11C188.55,-153.77 205.38,-111.85 209.33,-73"/>
</g>
<!-- src_model -->
<g id="node5" class="node">
<title>src_model</title><style>.edge>path:hover{stroke-width:8}</style>
<ellipse fill="#53b6b6" stroke="black" cx="35.33" cy="-347.34" rx="35.33" ry="18"/>
<text text-anchor="middle" x="35.33" y="-343.84" font-family="Helvetica,sans-Serif" font-size="10.00" fill="#000000">src.model</text>
</g>
<!-- src_model&#45;&gt;src_controller_smart_home_controller -->
<g id="edge4" class="edge">
<title>src_model&#45;&gt;src_controller_smart_home_controller</title><style>.edge>path:hover{stroke-width:8}</style>
<path fill="none" stroke="black" d="M160.33,-279.23C162.56,-271.31 163.54,-262.65 163.79,-254.28"/>
<polygon fill="#53b6b6" stroke="black" points="167.29,-254.52 163.76,-244.54 160.29,-254.55 167.29,-254.52"/>
<path fill="none" stroke="black" d="M54.55,-332.06C62.09,-326.77 70.92,-320.92 79.33,-316.23 113.73,-297.02 149.66,-318.15 160.33,-280.23"/>
</g>
<!-- src_model_locations -->
<g id="node6" class="node">
<title>src_model_locations</title><style>.edge>path:hover{stroke-width:8}</style>
<ellipse fill="#53b6b6" stroke="black" cx="127.33" cy="-347.34" rx="38.89" ry="31.11"/>
<text text-anchor="middle" x="127.33" y="-355.84" font-family="Helvetica,sans-Serif" font-size="10.00" fill="#000000">src.</text>
<text text-anchor="middle" x="127.33" y="-343.84" font-family="Helvetica,sans-Serif" font-size="10.00" fill="#000000">model.</text>
<text text-anchor="middle" x="127.33" y="-331.84" font-family="Helvetica,sans-Serif" font-size="10.00" fill="#000000">locations</text>
</g>
<!-- src_model_locations&#45;&gt;src_controller_smart_home_controller -->
<g id="edge5" class="edge">
<title>src_model_locations&#45;&gt;src_controller_smart_home_controller</title><style>.edge>path:hover{stroke-width:8}</style>
<path fill="none" stroke="black" d="M143.9,-318.97C150.12,-307.41 156.58,-293.56 160.33,-280.23"/>
</g>
<!-- src_model_locations_group -->
<g id="node7" class="node">
<title>src_model_locations_group</title><style>.edge>path:hover{stroke-width:8}</style>
<ellipse fill="#53b6b6" stroke="black" cx="94.33" cy="-454.05" rx="41.01" ry="39.6"/>
<text text-anchor="middle" x="94.33" y="-468.55" font-family="Helvetica,sans-Serif" font-size="10.00" fill="#000000">src.</text>
<text text-anchor="middle" x="94.33" y="-456.55" font-family="Helvetica,sans-Serif" font-size="10.00" fill="#000000">model.</text>
<text text-anchor="middle" x="94.33" y="-444.55" font-family="Helvetica,sans-Serif" font-size="10.00" fill="#000000">locations.</text>
<text text-anchor="middle" x="94.33" y="-432.55" font-family="Helvetica,sans-Serif" font-size="10.00" fill="#000000">group</text>
</g>
<!-- src_model_locations_group&#45;&gt;src_controller_smart_home_controller -->
<g id="edge6" class="edge">
<title>src_model_locations_group&#45;&gt;src_controller_smart_home_controller</title><style>.edge>path:hover{stroke-width:8}</style>
<path fill="none" stroke="black" d="M194.33,-346.34C193.87,-313.3 151.38,-312.03 160.33,-280.23"/>
<path fill="none" stroke="black" d="M126.09,-428.4C155.48,-404.32 194.61,-368.45 194.33,-348.34"/>
</g>
<!-- src_model_locations_room -->
<g id="node8" class="node">
<title>src_model_locations_room</title><style>.edge>path:hover{stroke-width:8}</style>
<ellipse fill="#53b6b6" stroke="black" cx="194.33" cy="-454.05" rx="41.01" ry="39.6"/>
<text text-anchor="middle" x="194.33" y="-468.55" font-family="Helvetica,sans-Serif" font-size="10.00" fill="#000000">src.</text>
<text text-anchor="middle" x="194.33" y="-456.55" font-family="Helvetica,sans-Serif" font-size="10.00" fill="#000000">model.</text>
<text text-anchor="middle" x="194.33" y="-444.55" font-family="Helvetica,sans-Serif" font-size="10.00" fill="#000000">locations.</text>
<text text-anchor="middle" x="194.33" y="-432.55" font-family="Helvetica,sans-Serif" font-size="10.00" fill="#000000">room</text>
</g>
<!-- src_model_locations_room&#45;&gt;src_controller_smart_home_controller -->
<g id="edge7" class="edge">
<title>src_model_locations_room&#45;&gt;src_controller_smart_home_controller</title><style>.edge>path:hover{stroke-width:8}</style>
<path fill="none" stroke="black" d="M194.58,-414.26C194.65,-394.52 194.63,-370.15 194.33,-348.34"/>
</g>
<!-- src_view -->
<g id="node9" class="node">
<title>src_view</title><style>.edge>path:hover{stroke-width:8}</style>
<ellipse fill="#53b6b6" stroke="black" cx="267.33" cy="-127" rx="30.37" ry="18"/>
<text text-anchor="middle" x="267.33" y="-123.5" font-family="Helvetica,sans-Serif" font-size="10.00" fill="#000000">src.view</text>
</g>
<!-- src_view&#45;&gt;main_py -->
<g id="edge8" class="edge">
<title>src_view&#45;&gt;main_py</title><style>.edge>path:hover{stroke-width:8}</style>
<path fill="none" stroke="black" d="M242.94,-115.85C226.2,-107.07 207.33,-92.68 209.33,-73"/>
</g>
<!-- src_view_smart_home_view -->
<g id="node10" class="node">
<title>src_view_smart_home_view</title><style>.edge>path:hover{stroke-width:8}</style>
<ellipse fill="#53b6b6" stroke="black" cx="325.33" cy="-212.11" rx="65.94" ry="31.11"/>
<text text-anchor="middle" x="325.33" y="-220.61" font-family="Helvetica,sans-Serif" font-size="10.00" fill="#000000">src.</text>
<text text-anchor="middle" x="325.33" y="-208.61" font-family="Helvetica,sans-Serif" font-size="10.00" fill="#000000">view.</text>
<text text-anchor="middle" x="325.33" y="-196.61" font-family="Helvetica,sans-Serif" font-size="10.00" fill="#000000">smart_home_view</text>
</g>
<!-- src_view_smart_home_view&#45;&gt;main_py -->
<g id="edge9" class="edge">
<title>src_view_smart_home_view&#45;&gt;main_py</title><style>.edge>path:hover{stroke-width:8}</style>
<path fill="none" stroke="black" d="M327.2,-180.52C326.92,-158.28 322.93,-128.73 306.33,-109 276.72,-73.82 203.64,-118.63 209.33,-73"/>
</g>
</g>
</svg>
